<svg xmlns="http://www.w3.org/2000/svg" width="120" height="120" viewBox="0 0 120 120"><path fill="#101011" fill-rule="evenodd" d="M57.3170213,0 C58.4027896,0 59.2829787,0.88018913 59.2829787,1.96595745 L59.2829787,7.29023213 C59.2829787,7.71211631 59.6249834,8.05412102 60.0468676,8.05412102 C60.1025216,8.05412102 60.158009,8.04803896 60.2123416,8.03598316 L75.6133408,4.61867036 C76.2345863,4.48082281 76.8833694,4.540377 77.4691374,4.78902076 L78.378186,5.17488899 C79.3375883,5.58213113 79.8056741,6.66198972 79.4662716,7.63191204 L79.4195582,7.75266353 L77.3622262,12.5983884 C77.1973528,12.9867221 77.3785031,13.435185 77.7668368,13.6000584 C77.8221984,13.6235631 77.8801422,13.6404473 77.9394642,13.6503602 L93.1740103,16.1960954 C93.8017121,16.3009861 94.3809988,16.5992528 94.8310053,17.0492593 L95.5292544,17.7475085 C96.2635526,18.4818067 96.2954786,19.6525031 95.6250324,20.4247489 L95.5291119,20.5276496 L91.7636301,24.292359 C91.4652823,24.5906456 91.4652327,25.0743133 91.7635193,25.3726611 C91.8028902,25.41204 91.8464488,25.4469959 91.8934187,25.4769057 L105.20078,33.9508519 C105.737561,34.2926662 106.154224,34.7935472 106.392614,35.3835816 L106.762548,36.2992 C107.152975,37.2655419 106.720396,38.3600794 105.794584,38.8059142 L105.676313,38.8582087 L100.795878,40.8294646 C100.404698,40.9874661 100.21567,41.4326656 100.373671,41.8238456 C100.396192,41.879603 100.425218,41.9325061 100.460146,41.9814561 L109.43172,54.5546492 C109.801331,55.0726394 110,55.6931012 110,56.3294392 L110,57.3170213 C110,58.3609058 109.186312,59.2147433 108.158591,59.2788789 L108.034043,59.2827462 L102.708026,59.2821162 C102.286142,59.2820663 101.944097,59.6240305 101.944047,60.0459147 C101.94404,60.1016234 101.950128,60.1571656 101.962201,60.2115503 L105.381203,75.6132039 C105.519132,76.2345335 105.459599,76.8834258 105.210916,77.4692856 L104.825111,78.378186 C104.41785,79.3376329 103.337941,79.8057405 102.367974,79.4663222 L102.247301,79.4196423 L97.4006621,77.3621882 C97.0123208,77.1973328 96.5638663,77.378504 96.3990109,77.7668453 C96.3755079,77.8222101 96.3586261,77.8801569 96.3487161,77.9394817 L93.8038666,93.1739095 C93.6990011,93.801674 93.4007221,94.3810238 92.9506748,94.8310711 L92.2524915,95.5292544 C91.5181319,96.2636141 90.3473376,96.2955427 89.5750271,95.6250405 L89.4722341,95.5292281 L85.7066964,91.7635481 C85.4083849,91.4652253 84.9247172,91.4652162 84.6263944,91.7635277 C84.5870255,91.8028951 84.5520784,91.8464486 84.5221759,91.8934118 L76.0491518,105.20069 C75.7073363,105.737527 75.2064252,106.154236 74.6163458,106.392643 L73.7008,106.762548 C72.6940902,107.169285 71.5482642,106.682918 71.1415167,105.676212 L69.1696303,100.795766 C69.0115857,100.404604 68.5663653,100.215624 68.1752027,100.373669 C68.1194662,100.396189 68.0665828,100.425209 68.0176501,100.460127 L55.445377,109.431662 C54.9273711,109.80131 54.3068779,110 53.670506,110 L52.6829787,110 C51.5972104,110 50.7170213,109.119811 50.7170213,108.034043 L50.7170213,102.707922 C50.7170213,102.286038 50.3750166,101.944033 49.9531324,101.944033 C49.8974509,101.944033 49.8419363,101.950122 49.7875782,101.962189 L34.3868132,105.381188 C33.7654731,105.519126 33.1165672,105.459596 32.5306959,105.210908 L31.621814,104.825111 C30.6223361,104.400858 30.1559847,103.246728 30.5801596,102.247217 L32.6369805,97.4005946 C32.8017934,97.0122353 32.6205731,96.5638006 32.2322138,96.3989877 C32.1768744,96.3755027 32.1189561,96.3586323 32.0596613,96.3487267 L16.8260737,93.803873 C16.1983196,93.6990032 15.6189803,93.4007263 15.1689399,92.9506858 L14.4707456,92.2524915 C13.702977,91.4847229 13.7029369,90.2399364 14.4706561,89.4721184 L18.2614595,85.6808273 C18.5597575,85.3824909 18.5597264,84.8988232 18.26139,84.6005252 C18.2188824,84.5580231 18.1715067,84.5206869 18.1202461,84.4892915 L4.96681867,76.433263 C4.42410414,76.1008687 3.99872176,75.6073096 3.75005432,75.0214858 L3.36422432,74.1125273 C2.93997466,73.1130578 3.40625028,71.9589026 4.40569875,71.5346033 L9.39718749,69.4155493 C9.78552574,69.2506868 9.96668856,68.8022289 9.80182599,68.4138906 C9.78007388,68.362653 9.75278654,68.3139463 9.72045007,68.2686384 L0.568464841,55.4454345 C0.198736935,54.9273943 1.33843554e-15,54.306832 1.33843554e-15,53.6703853 L1.33843554e-15,52.6829787 C1.33843554e-15,51.5971728 0.8801515,50.7169171 1.96595743,50.7167887 L7.29033586,50.7161587 C7.71222004,50.7161088 8.05418428,50.3740636 8.05413437,49.9521795 C8.05412779,49.8965526 8.0480451,49.8410929 8.03599454,49.786787 L4.61868611,34.3866763 C4.48082845,33.7654203 4.54037999,33.1166236 4.78902861,32.5308441 L5.17488899,31.621814 C5.59913643,30.6223497 6.75326976,30.1560282 7.75274763,30.5802437 L12.5984559,32.6369425 C12.9868076,32.8017734 13.4352507,32.620574 13.6000816,32.2322223 C13.6235684,32.1768861 13.6404411,32.1189709 13.6503495,32.0596788 L16.196089,16.8259729 C16.3009839,16.1982815 16.5992487,15.6190054 17.0492483,15.1690058 L17.7475085,14.4707456 C18.4818681,13.7363859 19.6526624,13.7044573 20.4249729,14.3749595 L20.5277659,14.4707719 L24.2923808,18.2355291 C24.5906923,18.5338519 25.07436,18.5338611 25.3726828,18.2355495 C25.412038,18.1961958 25.4469745,18.152659 25.4768701,18.1057144 L33.9508543,4.79916206 C34.2926679,4.26241796 34.7935296,3.8457826 35.3835354,3.6074048 L36.2992,3.23745231 C37.3059098,2.83071511 38.4517358,3.31708241 38.8584833,4.32378812 L40.8303697,9.20423361 C40.9884143,9.59539619 41.4336347,9.78437564 41.8247973,9.62633102 C41.8805338,9.60381134 41.9334172,9.57479122 41.9823499,9.53987298 L54.554623,0.56833769 C55.0726289,0.198690311 55.6931221,0 56.329494,0 L57.3170213,0 Z M56.5073102,78.6333587 L56.1228247,78.6544052 L56.1232636,96.9691927 C56.123304,98.6567295 57.4913556,100.024675 59.1788924,100.024675 C59.8058705,100.024675 60.4176673,99.8317715 60.9312773,99.4721797 L64.9449707,96.6620875 C66.1105281,95.8460502 66.5585808,94.3335142 66.0255385,93.0143073 L60.0185097,78.1477312 L60.07978,78.1344249 C58.9185276,78.3882391 57.7254103,78.5568445 56.5073102,78.6333587 L56.5073102,78.6333587 Z M47.4860351,77.4636041 L47.0378818,77.3087208 L39.8797999,94.1747617 C39.2205147,95.7281848 39.9453568,97.5219393 41.4987799,98.1812244 C42.075869,98.4261456 42.7143278,98.4876315 43.327551,98.3573418 L48.296553,97.3015925 C49.7078273,97.0017432 50.7170452,95.7556016 50.7170787,94.3128247 L50.7174507,78.294307 L50.7434753,78.2990455 C49.6285079,78.0966773 48.5407386,77.8162409 47.4860351,77.4636041 L47.4860351,77.4636041 Z M65.584992,76.1889673 L65.1451178,76.4034575 L72.0093328,93.3921757 C72.6415211,94.9568221 74.4224074,95.7127287 75.9870538,95.0805404 C76.5683227,94.8456813 77.0632818,94.4377094 77.4047889,93.9119668 L80.1719665,89.6519587 C80.9579133,88.442011 80.7904063,86.8471916 79.7702178,85.8269459 L68.4421312,74.4982242 L68.3907862,74.5335894 C67.4977738,75.1469466 66.5605934,75.7006549 65.584992,76.1889673 L65.584992,76.1889673 Z M39.4838648,72.8895379 L39.0684179,72.520309 L26.117526,85.471206 C24.9242575,86.6644749 24.9242579,88.5991456 26.1175268,89.7924141 C26.5608471,90.2357342 27.1298073,90.5319543 27.7472205,90.6408882 L32.5712008,91.4920123 C33.9724061,91.7392355 35.3588058,90.9865796 35.9147608,89.6768431 L42.181128,74.9143346 L42.1934062,74.9222491 C41.2412309,74.3088971 40.3358689,73.6291451 39.4838648,72.8895379 L39.4838648,72.8895379 Z M72.7412542,70.6853322 L72.520309,70.9315821 L85.4711409,83.882409 C86.6644098,85.0756774 88.5990806,85.0756771 89.792349,83.8824082 C90.2356786,83.4390784 90.5319017,82.8701036 90.64083,82.2526759 L91.4920698,77.427678 C91.7392627,76.0265389 90.9866755,74.6402063 89.677031,74.0842149 L74.9153243,67.8173375 C74.3574307,68.6826867 73.7428922,69.5113551 73.0779165,70.2964486 L72.7412542,70.6853322 Z M33.7672484,65.4970584 L33.5461315,65.0382621 L16.7028757,72.1880633 C15.1494987,72.847457 14.424782,74.6412621 15.0841757,76.1946391 C15.329131,76.7716964 15.7456522,77.2594448 16.2772421,77.5917256 L20.4146211,80.177877 C21.6211805,80.932061 23.1886203,80.7536009 24.1947623,79.7474909 L35.501247,68.4413655 L35.4664106,68.3907862 C34.8346473,67.4709756 34.2661665,66.5043063 33.7672484,65.4970584 L33.7672484,65.4970584 Z M55,36.6666667 C44.8747796,36.6666667 36.6666667,44.8747796 36.6666667,55 C36.6666667,65.1252204 44.8747796,73.3333333 55,73.3333333 C65.1252204,73.3333333 73.3333333,65.1252204 73.3333333,55 C73.3333333,44.8747796 65.1252204,36.6666667 55,36.6666667 Z M77.3531455,62.8365346 L77.3092667,62.9605887 L94.174573,70.1196927 C95.7279519,70.779082 97.5217549,70.0543601 98.1811442,68.5009812 C98.4261252,67.9238587 98.4876429,67.2853449 98.3573511,66.6720667 L97.3015699,61.7025451 C97.0017355,60.2912365 95.755565,59.2819913 94.3127578,59.2819742 L78.2944467,59.281784 L78.3005725,59.2481029 C78.1093089,60.3040691 77.8480248,61.3356587 77.5217031,62.3378891 L77.3531455,62.8365346 Z M31.3364464,55.9057288 L31.3455948,56.1228247 L13.8623257,56.1232437 C11.9355602,56.1232898 10.3736918,57.6852793 10.3736918,59.6120447 C10.3736918,60.327832 10.5938972,61.0262912 11.0043883,61.6126773 L12.0087288,63.0473767 C13.6636259,65.4113954 16.7466375,66.2956087 19.4029265,65.1680461 L31.8258903,59.8946477 L31.8363643,59.9442215 C31.5930016,58.7984728 31.4324959,57.622095 31.3614153,56.4216564 L31.3364464,55.9057288 Z M93.0151208,43.9734088 L78.1474005,49.9799578 L78.1231593,49.8689517 C78.3842762,51.0509711 78.5570713,52.2661639 78.6342691,53.5072546 L78.6543339,53.8756483 L96.9694775,53.8763658 C98.6570143,53.8763658 100.025153,52.5084667 100.025153,50.82093 C100.025153,50.1939933 99.8323529,49.5822227 99.4728377,49.0686097 L96.662927,45.0542965 C95.8469779,43.8886098 94.3344081,43.4404177 93.0151208,43.9734088 Z M11.8184964,41.4987638 C11.573565,42.0758231 11.512053,42.7142542 11.6423035,43.3274619 L12.6975226,48.2953362 C12.9973134,49.7067238 14.2435423,50.7160292 15.6864177,50.7160292 L31.7059727,50.7160292 L31.7634156,50.4127886 C31.9613341,49.4044781 32.2232475,48.4191103 32.544752,47.4610892 L32.6910063,47.0386465 L15.8250133,39.879918 C14.2716123,39.2205808 12.4778336,39.9453628 11.8184964,41.4987638 Z M85.8268374,30.2288728 L74.4976954,41.5571032 L74.4664423,41.5119712 C75.1821891,42.5430202 75.8181256,43.6336544 76.3653102,44.7749325 L76.4030955,44.85412 L93.3922725,37.9904077 C94.9569409,37.3582739 95.7129095,35.5774139 95.0807757,34.0127455 C94.845947,33.4314937 94.4380173,32.9365375 93.9123184,32.5950132 L89.6519799,29.8272519 C88.4420333,29.0412009 86.8471351,29.2086573 85.8268374,30.2288728 Z M20.2072174,26.1171582 C19.7639509,26.5604249 19.4677475,27.1293024 19.3587818,27.7466329 L18.507206,32.5711218 C18.2598721,33.9723593 19.0124898,35.3588555 20.3222577,35.9148672 L35.0851705,42.1818953 L35.0708318,42.2041539 C35.7267278,41.1847257 36.4587067,40.2188894 37.2587458,39.3146678 L37.479691,39.0684179 L24.5284255,26.1171574 C23.3351566,24.923889 21.4004858,24.9238893 20.2072174,26.1171582 Z M74.08417,20.3222278 L67.8173375,35.0846757 L68.0884329,35.2621454 C69.0004516,35.8681294 69.8680593,36.5356374 70.6853322,37.2587458 L70.9308221,37.4789996 L83.8823865,24.5285294 C85.0757056,23.3353111 85.0757873,21.4006403 83.882569,20.2073213 C83.4392804,19.7639952 82.8703527,19.467755 82.252964,19.3587872 L77.4278767,18.5071697 C76.0266505,18.2598563 74.6401761,19.0124736 74.08417,20.3222278 Z M34.0126393,14.9189614 C33.4314257,15.1537746 32.9364955,15.5616665 32.5949729,16.0873173 L29.8274054,20.3469884 C29.0412742,21.5569537 29.2087168,23.1519315 30.2289868,24.1722587 L41.5578688,35.5017758 L41.6092138,35.4664106 C42.611521,34.7779853 43.6694692,34.164703 44.7749325,33.6346898 L44.85412,33.5969045 L37.9903015,16.6074646 C37.3581677,15.0427962 35.5773077,14.2868276 34.0126393,14.9189614 Z M66.6723907,11.6422443 L61.7036594,12.697567 C60.2922841,12.9973329 59.2829548,14.2435216 59.2829213,15.6863799 L59.2825493,31.705693 L59.2565247,31.7009545 C60.3568072,31.9006573 61.4306032,32.1763855 62.472274,32.5225 L62.9605887,32.6907333 L70.1198494,15.8250579 C70.7792386,14.271679 70.0545168,12.477876 68.5011379,11.8184868 C67.9240691,11.5735285 67.2856191,11.511999 66.6723907,11.6422443 Z M50.8210188,9.97471752 C50.194115,9.97471752 49.582381,10.1675362 49.0687949,10.5270326 L45.0543819,13.3370131 C43.8886561,14.1529897 43.4404779,15.6656285 43.9735422,16.9849378 L49.980724,31.8524341 L49.8980242,31.8704377 C51.0687241,31.613374 52.2718769,31.4429274 53.5004236,31.3661568 L53.8764118,31.3456304 L53.8765511,13.0302963 C53.8765511,11.3427596 52.5085555,9.97471752 50.8210188,9.97471752 Z" transform="translate(5 5)"/></svg>