<svg xmlns="http://www.w3.org/2000/svg" width="120" height="120" viewBox="0 0 120 120"><path fill="#101011" fill-rule="evenodd" d="M57.3170213,0 C58.4027896,0 59.2829787,0.88018913 59.2829787,1.96595745 L59.2829787,7.29023213 C59.2829787,7.71211631 59.6249834,8.05412102 60.0468676,8.05412102 C60.1025216,8.05412102 60.158009,8.04803896 60.2123416,8.03598316 L75.6133408,4.61867036 C76.2345863,4.48082281 76.8833694,4.540377 77.4691374,4.78902076 L78.378186,5.17488899 C79.3375883,5.58213113 79.8056741,6.66198972 79.4662716,7.63191204 L79.4195582,7.75266353 L77.3622262,12.5983884 C77.1973528,12.9867221 77.3785031,13.435185 77.7668368,13.6000584 C77.8221984,13.6235631 77.8801422,13.6404473 77.9394642,13.6503602 L93.1740103,16.1960954 C93.8017121,16.3009861 94.3809988,16.5992528 94.8310053,17.0492593 L95.5292544,17.7475085 C96.2635526,18.4818067 96.2954786,19.6525031 95.6250324,20.4247489 L95.5291119,20.5276496 L91.7636301,24.292359 C91.4652823,24.5906456 91.4652327,25.0743133 91.7635193,25.3726611 C91.8028902,25.41204 91.8464488,25.4469959 91.8934187,25.4769057 L105.20078,33.9508519 C105.737561,34.2926662 106.154224,34.7935472 106.392614,35.3835816 L106.762548,36.2992 C107.152975,37.2655419 106.720396,38.3600794 105.794584,38.8059142 L105.676313,38.8582087 L100.795878,40.8294646 C100.404698,40.9874661 100.21567,41.4326656 100.373671,41.8238456 C100.396192,41.879603 100.425218,41.9325061 100.460146,41.9814561 L109.43172,54.5546492 C109.801331,55.0726394 110,55.6931012 110,56.3294392 L110,57.3170213 C110,58.3609058 109.186312,59.2147433 108.158591,59.2788789 L108.034043,59.2827462 L102.708026,59.2821162 C102.286142,59.2820663 101.944097,59.6240305 101.944047,60.0459147 C101.94404,60.1016234 101.950128,60.1571656 101.962201,60.2115503 L105.381203,75.6132039 C105.519132,76.2345335 105.459599,76.8834258 105.210916,77.4692856 L104.825111,78.378186 C104.41785,79.3376329 103.337941,79.8057405 102.367974,79.4663222 L102.247301,79.4196423 L97.4006621,77.3621882 C97.0123208,77.1973328 96.5638663,77.378504 96.3990109,77.7668453 C96.3755079,77.8222101 96.3586261,77.8801569 96.3487161,77.9394817 L93.8038666,93.1739095 C93.6990011,93.801674 93.4007221,94.3810238 92.9506748,94.8310711 L92.2524915,95.5292544 C91.5181319,96.2636141 90.3473376,96.2955427 89.5750271,95.6250405 L89.4722341,95.5292281 L85.7066964,91.7635481 C85.4083849,91.4652253 84.9247172,91.4652162 84.6263944,91.7635277 C84.5870255,91.8028951 84.5520784,91.8464486 84.5221759,91.8934118 L76.0491518,105.20069 C75.7073363,105.737527 75.2064252,106.154236 74.6163458,106.392643 L73.7008,106.762548 C72.6940902,107.169285 71.5482642,106.682918 71.1415167,105.676212 L69.1696303,100.795766 C69.0115857,100.404604 68.5663653,100.215624 68.1752027,100.373669 C68.1194662,100.396189 68.0665828,100.425209 68.0176501,100.460127 L55.445377,109.431662 C54.9273711,109.80131 54.3068779,110 53.670506,110 L52.6829787,110 C51.5972104,110 50.7170213,109.119811 50.7170213,108.034043 L50.7170213,102.707922 C50.7170213,102.286038 50.3750166,101.944033 49.9531324,101.944033 C49.8974509,101.944033 49.8419363,101.950122 49.7875782,101.962189 L34.3868132,105.381188 C33.7654731,105.519126 33.1165672,105.459596 32.5306959,105.210908 L31.621814,104.825111 C30.6223361,104.400858 30.1559847,103.246728 30.5801596,102.247217 L32.6369805,97.4005946 C32.8017934,97.0122353 32.6205731,96.5638006 32.2322138,96.3989877 C32.1768744,96.3755027 32.1189561,96.3586323 32.0596613,96.3487267 L16.8260737,93.803873 C16.1983196,93.6990032 15.6189803,93.4007263 15.1689399,92.9506858 L14.4707456,92.2524915 C13.702977,91.4847229 13.7029369,90.2399364 14.4706561,89.4721184 L18.2614595,85.6808273 C18.5597575,85.3824909 18.5597264,84.8988232 18.26139,84.6005252 C18.2188824,84.5580231 18.1715067,84.5206869 18.1202461,84.4892915 L4.96681867,76.433263 C4.42410414,76.1008687 3.99872176,75.6073096 3.75005432,75.0214858 L3.36422432,74.1125273 C2.93997466,73.1130578 3.40625028,71.9589026 4.40569875,71.5346033 L9.39718749,69.4155493 C9.78552574,69.2506717 9.96672498,68.8022117 9.80184734,68.4138735 C9.77832196,68.3584982 9.74889321,68.305453 9.71453822,68.2562549 L0.74176899,55.4036447 C0.364930887,54.8636137 0.162833219,54.2182586 0.162822536,53.5564422 L0.162822536,52.6829787 C0.162822536,51.639095 0.976511215,50.7852575 2.00423198,50.7211218 L2.12878012,50.7172545 L7.45448695,50.7178844 C7.87637112,50.7179344 8.21837585,50.3759701 8.2184258,49.954086 C8.21843239,49.8984283 8.21236021,49.8429362 8.2003164,49.7885987 L4.78163939,34.3871602 C4.64370429,33.7658561 4.70323363,33.1170077 4.95190929,32.5311589 L5.33768085,31.6223239 C5.74492758,30.6628735 6.82483842,30.1947601 7.79480712,30.5341798 L7.91548036,30.5808596 L12.7618118,32.6381755 C13.1501532,32.8030309 13.5986077,32.6218597 13.7634631,32.2335183 C13.7869739,32.1781359 13.8038636,32.1201758 13.813782,32.0608293 L16.3595263,16.8262136 C16.4644132,16.1984647 16.7626914,15.6191216 17.2127415,15.1690716 L17.9109289,14.4708841 C18.6452902,13.7365228 19.8160835,13.7045947 20.5883905,14.3750943 L20.6911815,14.4709075 L24.4569226,18.236894 C24.7552517,18.5351993 25.2389194,18.5351998 25.5372247,18.2368707 C25.5765902,18.1975016 25.6115352,18.1539494 25.6414365,18.1069865 L34.1144992,4.79930489 C34.4563145,4.26246484 34.9572258,3.84575352 35.5473057,3.6073463 L36.4628515,3.23744063 C37.4695628,2.83070813 38.6153897,3.31707426 39.0221222,4.32378563 L40.9940077,9.20423139 C41.1520524,9.59539395 41.5972727,9.78437463 41.9884353,9.62632998 C42.0441739,9.6038091 42.0970602,9.57478887 42.1459929,9.53987072 L54.718266,0.568336217 C55.2362719,0.198687613 55.8567651,0 56.493137,0 L57.3170213,0 Z" transform="translate(5 5)"/></svg>
